<?xml version="1.0" encoding="UTF-8"?>
<svg id="Layer_1" data-name="Layer 1" xmlns="http://www.w3.org/2000/svg" viewBox="0 0 240 276.17">
  <defs>
    <style>
      .cls-1 {
        fill: #fff;
      }

      .cls-2 {
        fill: #3d63ab;
      }
    </style>
  </defs>
  <g>
    <path class="cls-2" d="M97.48,106.44h-29.63c6.17,29.08,31.99,50.91,62.92,50.91,35.53,0,64.33-28.8,64.33-64.33s-28.8-64.33-64.33-64.33c-30.2,0-55.53,20.82-62.45,48.89h29.17v28.86Z"/>
    <path d="M130.76,0C84.66,0,46.41,33.56,39.05,77.58h-13.91v28.86h13.59c6.51,45.01,45.23,79.59,92.04,79.59,51.37,0,93.02-41.64,93.02-93.02S182.14,0,130.76,0ZM38,99.51h-4.43v-14.46h54.23v14.46h-49.8ZM130.76,157.34c-30.92,0-56.74-21.82-62.92-50.91h29.63v-28.86h-29.17c6.92-28.07,32.25-48.89,62.45-48.89,35.53,0,64.33,28.8,64.33,64.33s-28.8,64.33-64.33,64.33Z"/>
    <path d="M38.11,85.05h-4.54v14.46h4.43c-.15-2.15-.25-4.31-.25-6.49,0-2.69.14-5.34.36-7.97Z"/>
    <path class="cls-1" d="M66.94,85.05h-28.83c-.22,2.63-.36,5.28-.36,7.97,0,2.19.1,4.35.25,6.49h49.8v-14.46h-20.86Z"/>
    <path class="cls-1" d="M130.77,146.67c-2.5,0-4.52-2.02-4.52-4.52s2.02-4.52,4.52-4.52c25.16,0,45.62-20.47,45.62-45.62s-20.47-45.62-45.62-45.62c-2.5,0-4.52-2.02-4.52-4.52s2.02-4.52,4.52-4.52c30.14,0,54.66,24.52,54.66,54.66s-24.52,54.66-54.66,54.66Z"/>
  </g>
  <path d="M0,257.5h15.04v17.26H0v-17.26Z"/>
  <path d="M71.64,271.97c-2.41,1.4-4.89,2.45-7.45,3.15-2.56.7-5.17,1.05-7.84,1.05-8.47,0-15.09-2.54-19.86-7.62-4.77-5.08-7.16-12.11-7.16-21.1s2.39-16.02,7.16-21.1c4.77-5.08,11.39-7.62,19.86-7.62,2.64,0,5.21.34,7.72,1.03,2.51.68,5.03,1.74,7.57,3.17v9.43c-2.38-2.12-4.76-3.65-7.16-4.59-2.39-.94-5.1-1.42-8.13-1.42-5.63,0-9.96,1.82-12.99,5.47-3.03,3.65-4.54,8.86-4.54,15.63s1.52,11.94,4.57,15.61c3.04,3.66,7.37,5.5,12.97,5.5,3.13,0,5.93-.48,8.4-1.44,2.47-.96,4.77-2.45,6.89-4.47v9.33Z"/>
  <path d="M127.86,240.86v33.9h-9.04v-33.9c0-4.92-.86-8.53-2.59-10.84-1.73-2.31-4.43-3.47-8.11-3.47-4.2,0-7.43,1.49-9.7,4.47-2.26,2.98-3.39,7.25-3.39,12.82v30.92h-8.99v-76h8.99v29.5c1.6-3.13,3.76-5.49,6.5-7.11,2.73-1.61,5.97-2.42,9.72-2.42,5.57,0,9.73,1.83,12.48,5.5,2.75,3.66,4.13,9.21,4.13,16.63Z"/>
  <path d="M185.48,243.55v31.21h-9.04v-8.11c-1.92,3.26-4.34,5.66-7.25,7.2-2.91,1.55-6.46,2.32-10.62,2.32-5.57,0-10.01-1.57-13.33-4.71-3.32-3.14-4.98-7.35-4.98-12.63,0-6.09,2.04-10.71,6.13-13.87,4.09-3.16,10.09-4.74,18-4.74h12.06v-1.42c-.03-4.36-1.14-7.53-3.32-9.5-2.18-1.97-5.67-2.96-10.45-2.96-3.06,0-6.15.44-9.28,1.32-3.13.88-6.17,2.17-9.13,3.86v-8.99c3.32-1.27,6.5-2.22,9.55-2.86,3.04-.64,6-.95,8.87-.95,4.53,0,8.39.67,11.6,2,3.21,1.34,5.8,3.34,7.79,6.01,1.24,1.63,2.12,3.64,2.64,6.03.52,2.39.78,5.98.78,10.77ZM168.04,247.26h-2.98c-5.24,0-9.19.92-11.84,2.76-2.65,1.84-3.98,4.58-3.98,8.23,0,3.29.99,5.85,2.98,7.67,1.99,1.82,4.74,2.74,8.26,2.74,4.95,0,8.84-1.72,11.67-5.15,2.83-3.43,4.27-8.18,4.3-14.24v-2h-8.4Z"/>
  <path d="M219.58,204.52v15.53h20.42v6.98h-20.42v29.7c0,4.04.76,6.85,2.3,8.45,1.53,1.6,4.2,2.39,8.01,2.39h10.11v7.18h-10.99c-6.74,0-11.5-1.35-14.26-4.05-2.77-2.7-4.15-7.36-4.15-13.97v-29.7h-14.6v-6.98h14.6v-15.53h8.99Z"/>
</svg>