<?xml version="1.0" encoding="UTF-8"?>
<svg id="Layer_1" data-name="Layer 1" xmlns="http://www.w3.org/2000/svg" viewBox="0 0 961.64 111.71">
  <defs>
    <style>
      .cls-1 {
        fill: #231f20;
      }

      .cls-2 {
        fill: #942335;
      }

      .cls-3 {
        fill: #fff;
      }

      .cls-4 {
        fill: #3d63ab;
      }
    </style>
  </defs>
  <path class="cls-1" d="M0,107.44V.37h22.41v87.56h53.05v19.51H0Z"/>
  <path class="cls-1" d="M155.08,107.44l-6.77-22.09h-39.51l-7.58,22.09h-23.7L115.73.37h25.96l37.73,107.07h-24.35ZM128.47,24.4h-.16l-13.71,42.57h27.25l-13.38-42.57Z"/>
  <path class="cls-1" d="M241.96.37h22.9v71.44c0,25.96-15.96,39.35-44.02,39.35-25.96,0-42.25-12.26-42.25-38.06V.37h22.74v70.63c0,13.22,7.09,21.61,19.19,21.61,14.35,0,21.45-6.77,21.45-20.8V.37Z"/>
  <path class="cls-1" d="M341.13,107.44l-45.8-71.92v71.92h-20.8V.37h23.7l42.57,68.86V.37h20.96v107.07h-20.64Z"/>
  <path class="cls-1" d="M371.59,107.44V.37h41.44c29.03,0,49.67,19.84,49.67,52.41s-18.54,54.66-46.28,54.66h-44.83ZM411.9,89.22c19.51,0,27.9-12.25,27.9-36.44s-8.39-33.87-29.83-33.87h-16.61v70.31h18.54Z"/>
  <path class="cls-1" d="M531.26,107.44v-27.57c0-10.32-3.87-14.35-16.77-14.35h-23.87v41.93h-21.77V.37h54.34c19.84,0,32.9,13.22,32.9,30.96,0,11.45-5.64,21.13-15.96,24.83,9.51,3.06,13.06,8.39,13.06,20.96v30.32h-21.93ZM490.62,18.91v28.54h28.06c11.93,0,16.45-5.97,16.45-14.19s-4.52-14.35-15.64-14.35h-28.86Z"/>
  <path class="cls-1" d="M762.84,107.44V34.07l-20,73.37h-22.25l-19.84-73.05v73.05h-20.8V.37h32.9l19.35,78.53L751.55.37h32.25v107.07h-20.96Z"/>
  <path class="cls-1" d="M864.83,107.44l-6.77-22.09h-39.51l-7.58,22.09h-23.71L825.48.37h25.96l37.73,107.07h-24.35ZM838.22,24.4h-.16l-13.71,42.57h27.25l-13.38-42.57Z"/>
  <path class="cls-1" d="M906.81,107.44V19.08h-32.25V.37h87.08v18.71h-32.41v88.37h-22.41Z"/>
  <g>
    <path class="cls-2" d="M941.03,38.79c-.63-.57-1.25-1.09-1.85-1.54s-1.31-.9-2.09-1.33l1.26-1.83c.81.41,1.54.83,2.2,1.25.66.42,1.34.9,2.04,1.44l-1.56,2.01ZM942.42,42.39c-.52,1.45-.99,2.87-1.41,4.27s-.82,2.82-1.2,4.27c-.47-.36-.91-.67-1.33-.94-.42-.27-.87-.53-1.36-.78.68-1.04,1.28-2.22,1.79-3.53.51-1.32.92-2.87,1.22-4.66.34.36.71.65,1.1.89.39.23.79.39,1.18.48ZM942.13,32.5c-.63-.75-1.22-1.39-1.77-1.91-.55-.52-1.2-1.01-1.93-1.48l1.5-1.72c.45.34.85.65,1.22.93.37.28.7.55,1.01.81.3.26.6.52.9.78.3.26.6.55.93.87l-1.85,1.72ZM947.34,33.74c-.14.45-.28.86-.4,1.24-.13.38-.25.7-.38.97-.57-.38-1.33-.59-2.28-.64.52-.81.95-1.75,1.3-2.83.35-1.08.62-2.46.82-4.12.36.13.78.24,1.26.34.48.1.86.16,1.13.17.43.04.46.24.08.62-.05.05-.12.16-.2.32-.08.16-.17.35-.27.58-.1.22-.19.47-.28.73-.09.26-.17.52-.24.77h3.46v-1.05c0-.77-.02-1.51-.07-2.22-.04-.71-.1-1.28-.17-1.71.45.05.92.09,1.42.09.5,0,.91,0,1.24-.01.23-.02.36.02.39.12.03.1-.03.24-.17.42-.16.2-.28.45-.35.77-.07.31-.11.6-.11.85v2.74c.45,0,.98,0,1.6-.01.62,0,1.22-.02,1.81-.04.59-.02,1.12-.04,1.6-.07.47-.03.81-.06,1.01-.09v2.31c-.18-.02-.5-.04-.97-.08-.47-.04-.99-.06-1.58-.08-.59-.02-1.2-.03-1.81-.04-.62,0-1.17-.01-1.65-.01v4.11c1.79-.02,3.31-.05,4.55-.09,1.24-.04,2.07-.09,2.48-.15v2.36c-.48-.09-1.19-.16-2.12-.2-.93-.04-2.07-.07-3.41-.07v7.76c0,.41.12.67.38.78.25.11.68.16,1.29.16.32,0,.59-.03.82-.08.22-.05.41-.19.55-.4s.26-.53.35-.95c.09-.42.17-1,.24-1.73.32.45.7.81,1.13,1.09.43.28.84.48,1.24.6-.21.82-.41,1.47-.59,1.95-.18.47-.4.83-.67,1.06-.27.23-.63.38-1.07.44-.45.06-1.05.09-1.8.09-.9,0-1.6-.02-2.12-.07-.52-.04-.91-.14-1.18-.28-.27-.14-.44-.34-.52-.6-.08-.26-.12-.6-.12-1.01v-8.81h-2.74c-.02,1.04-.07,1.96-.15,2.77-.08.81-.21,1.54-.38,2.22s-.4,1.29-.68,1.84c-.29.56-.65,1.09-1.09,1.6-.44.51-.96,1.02-1.56,1.54-.6.52-1.3,1.07-2.11,1.67-.27-.29-.56-.56-.87-.83-.31-.27-.72-.58-1.22-.94,1.13-.56,2.07-1.11,2.83-1.65.76-.55,1.37-1.19,1.84-1.92.47-.73.8-1.6.99-2.6.2-1,.31-2.23.35-3.68-.97.02-1.87.05-2.71.09-.84.04-1.47.1-1.88.17v-2.36c.52.07,1.48.13,2.87.16,1.4.04,3.04.06,4.92.08v-4.11h-4Z"/>
    <path class="cls-2" d="M948.3,61c-.41.81-.84,1.55-1.29,2.23-.45.68-.98,1.4-1.61,2.15v8.38c1.02-.55,1.95-1.09,2.79-1.61.84-.52,1.49-.98,1.93-1.37.04.59.09,1.05.17,1.38.08.33.21.65.39.95l-5.45,3.06c-.36.2-.68.38-.95.55-.28.17-.53.34-.75.5s-.44.32-.66.48-.43.34-.64.54c-.18-.47-.36-.87-.55-1.21-.19-.34-.44-.73-.76-1.15.36-.16.72-.33,1.1-.5.38-.17.76-.34,1.16-.52v-7.14c-.63.57-1.33,1.17-2.12,1.8s-1.74,1.34-2.85,2.15c-.09-.25-.18-.47-.27-.66s-.2-.36-.32-.52-.27-.32-.44-.48-.39-.35-.66-.56c.61-.21,1.19-.47,1.75-.77s1.11-.64,1.65-1.03c.55-.39,1.1-.85,1.67-1.36.56-.51,1.16-1.1,1.79-1.76,1.24-1.29,2.3-2.93,3.2-4.91-.81,0-1.63,0-2.47.01-.84,0-1.66.03-2.44.05s-1.54.06-2.26.09c-.72.04-1.36.07-1.93.11v-2.6c1.25.09,2.78.16,4.57.2,1.79.04,3.66.07,5.61.07-.23-.93-.64-2.05-1.21-3.36l2.69-.59c.13.56.3,1.19.51,1.91s.45,1.4.7,2.04c.84,0,1.71,0,2.62-.01.9,0,1.79-.03,2.66-.05.87-.03,1.7-.06,2.48-.09.79-.04,1.49-.07,2.12-.11v2.6c-1.27-.09-2.78-.16-4.54-.2-1.75-.04-3.69-.07-5.8-.07.36,1.52.78,2.88,1.28,4.07.49,1.19.97,2.22,1.44,3.07.97-.91,1.79-1.76,2.47-2.55.68-.79,1.2-1.5,1.56-2.15.9.7,1.63,1.17,2.2,1.42.16.07.24.15.23.24,0,.09-.1.16-.28.21-.09.04-.22.11-.4.21-.18.11-.36.23-.55.38-.19.14-.37.29-.54.43-.17.14-.29.25-.36.32-1.11,1.13-2.21,2.15-3.3,3.06.54.7,1.11,1.3,1.72,1.81s1.24.94,1.91,1.3c.66.36,1.36.67,2.08.93.73.26,1.48.48,2.27.66-.5.36-.89.73-1.17,1.11-.28.39-.51.86-.69,1.44-1.92-.97-3.57-1.98-4.96-3.03-1.39-1.06-2.46-2.18-3.21-3.36-.68-1.09-1.29-2.31-1.83-3.67-.54-1.35-1.01-2.86-1.42-4.53Z"/>
    <path class="cls-2" d="M951.66,83.66c1.38,0,2.56,0,3.54-.03.98-.02,1.82-.04,2.5-.05.68-.02,1.25-.04,1.71-.08.46-.04.85-.07,1.17-.11v2.44c-.64-.07-1.52-.13-2.62-.19-1.1-.05-2.39-.08-3.88-.08h-11.41c.04,2.49,0,4.69-.08,6.59-.09,1.91-.26,3.62-.5,5.14-.24,1.52-.56,2.88-.95,4.08-.39,1.2-.87,2.33-1.42,3.38-.36-.41-.73-.8-1.11-1.17-.39-.37-.74-.65-1.06-.85.59-.81,1.09-1.73,1.5-2.78.41-1.05.73-2.32.95-3.83.22-1.5.35-3.29.38-5.37.03-2.08-.06-4.54-.25-7.39.29.04.66.07,1.13.11.46.04,1.05.07,1.76.09s1.57.04,2.58.05c1.01,0,2.21.01,3.58.01-.3-1-.63-1.87-.97-2.61l2.66-.56c.09.52.2,1.04.34,1.56.13.52.29,1.06.47,1.61ZM946.77,102.92v2.07h-2.5c.09-.47.16-1.02.2-1.68.04-.65.07-1.26.07-1.81v-3.92c0-.23,0-.49-.01-.77,0-.28-.02-.55-.04-.82s-.04-.52-.07-.75c-.03-.23-.05-.43-.07-.59.41.07,1.01.12,1.8.15s1.81.05,3.06.07v-4.54c0-.32,0-.67-.03-1.05s-.04-.74-.07-1.1c-.03-.36-.06-.68-.09-.97-.04-.29-.06-.51-.08-.67.47.09.92.15,1.37.17s.89.04,1.32.04c.27,0,.42.07.47.2.04.13-.02.26-.2.36-.14.09-.26.26-.35.52-.09.26-.13.52-.13.77v.86h4.75c.82,0,1.57-.02,2.24-.07.67-.04,1.28-.1,1.84-.17v2.36c-.55-.09-1.15-.15-1.8-.19-.64-.04-1.41-.05-2.28-.05h-4.75v3.52c1.9,0,3.41-.01,4.52-.04s1.94-.08,2.46-.17c-.04.16-.06.36-.08.6s-.04.5-.07.77c-.03.27-.04.54-.05.81,0,.27-.01.52-.01.75v3.71c0,.54.01,1.11.04,1.72.03.61.08,1.19.17,1.75h-2.55v-1.83h-9.08ZM955.85,101.09v-4.38h-9.08v4.38h9.08Z"/>
  </g>
  <g>
    <path class="cls-4" d="M597.11,63.92h-17.79c3.71,17.46,19.21,30.57,37.78,30.57,21.33,0,38.63-17.29,38.63-38.63s-17.29-38.63-38.63-38.63c-18.14,0-33.35,12.5-37.5,29.36h17.51v17.33Z"/>
    <path d="M617.1,0c-27.69,0-50.66,20.15-55.08,46.58h-8.36v17.33h8.16c3.91,27.03,27.16,47.8,55.27,47.8,30.85,0,55.86-25.01,55.86-55.86S647.95,0,617.1,0ZM561.39,59.75h-2.66v-8.68h32.56v8.68h-29.91ZM617.1,94.48c-18.57,0-34.07-13.1-37.78-30.57h17.79v-17.33h-17.51c4.15-16.85,19.36-29.36,37.5-29.36,21.33,0,38.63,17.29,38.63,38.63s-17.29,38.63-38.63,38.63Z"/>
    <path d="M561.46,51.07h-2.72v8.68h2.66c-.09-1.29-.15-2.59-.15-3.9,0-1.61.08-3.21.22-4.78Z"/>
    <path class="cls-3" d="M578.78,51.07h-17.31c-.13,1.58-.22,3.17-.22,4.78,0,1.31.06,2.61.15,3.9h29.91v-8.68h-12.52Z"/>
    <path class="cls-3" d="M617.1,88.07c-1.5,0-2.71-1.21-2.71-2.71s1.21-2.71,2.71-2.71c15.11,0,27.4-12.29,27.4-27.4s-12.29-27.4-27.4-27.4c-1.5,0-2.71-1.21-2.71-2.71s1.21-2.71,2.71-2.71c18.1,0,32.82,14.72,32.82,32.82s-14.73,32.82-32.82,32.82Z"/>
  </g>
</svg>